<svg xmlns="http://www.w3.org/2000/svg" width="512" height="512" viewBox="0 0 960 960">
  <rect width="960" height="960" fill="#1e3a5f"/>
  <path d="M 0.00 841.49 L 0.00 776.38 L 7.15 765.94 C39.79,718.25 73.86,673.71 125.95,610.60 C137.25,596.91 157.19,572.61 170.26,556.60 C200.89,519.10 203.21,516.50 209.36,512.94 C221.32,506.03 232.53,505.29 261.65,509.50 C330.60,519.48 400.60,545.41 442.65,576.55 C453.07,584.26 468.39,599.81 474.22,608.58 C489.71,631.88 492.08,659.90 481.29,692.35 C477.70,703.16 465.64,728.91 458.14,741.77 C452.60,751.27 402.42,839.60 389.27,863.00 C377.11,884.64 375.49,886.28 370.25,882.31 C367.70,880.37 367.52,879.76 367.71,873.73 C368.37,853.36 382.44,787.76 399.55,725.27 C407.66,695.65 411.41,676.04 410.75,666.77 C410.49,663.06 409.73,659.38 409.07,658.59 C407.59,656.80 394.14,651.11 379.00,645.88 C364.59,640.90 348.36,636.24 311.50,626.49 C295.55,622.28 274.77,616.62 265.31,613.91 C255.86,611.21 247.28,609.00 246.25,609.00 C245.03,609.00 242.45,611.75 238.96,616.75 C215.61,650.21 188.24,677.65 118.42,737.65 C84.28,766.99 76.01,774.21 31.75,813.39 L 0.00 841.49 ZM 960.00 534.01 L 960.00 546.00 L 742.22 546.00 L 741.54 549.75 C741.16,551.81 739.34,556.68 737.48,560.56 C730.64,574.88 716.19,585.33 700.25,587.48 L 695.00 588.19 L 695.00 548.70 L 686.75 549.36 C623.39,554.38 570.48,546.72 532.01,526.96 C512.07,516.71 493.97,500.85 482.60,483.63 C475.88,473.47 459.69,443.82 458.01,438.61 C456.02,432.45 457.15,421.13 460.29,415.77 C467.90,402.78 483.29,396.33 497.09,400.34 C507.64,403.41 513.68,410.26 532.41,440.43 C548.87,466.94 556.14,475.32 571.90,485.96 C588.62,497.25 625.12,511.30 660.00,519.88 C681.69,525.22 693.87,527.79 694.50,527.17 C694.77,526.89 695.00,518.87 695.00,509.33 L 695.00 492.00 L 697.45 492.00 C702.24,492.00 710.59,494.29 716.38,497.20 C727.90,502.99 736.53,513.41 740.46,526.28 L 742.66 533.50 L 960.00 534.01 ZM 354.12 353.46 C347.60,355.76 340.59,355.35 331.50,352.13 C277.35,332.99 238.85,296.71 230.48,256.93 C228.61,248.02 228.58,231.90 230.41,221.48 C235.87,190.49 248.91,162.91 281.47,113.50 C303.16,80.59 307.47,75.65 311.51,79.01 C311.85,79.29 312.15,79.53 312.39,79.83 C314.12,81.95 312.57,86.75 298.94,128.87 L 298.57 130.00 C289.95,156.65 282.82,184.40 280.52,200.30 C278.25,215.93 278.38,231.36 280.85,237.84 C287.47,255.27 296.06,262.22 339.85,285.58 C364.04,298.48 368.81,302.10 372.51,310.34 C375.90,317.91 376.41,322.84 374.55,330.18 C371.70,341.39 364.24,349.90 354.12,353.46 ZM 480.00 202.00 L 480.00 339.00 L 475.25 338.92 C458.54,338.62 437.20,326.99 425.87,312.00 C420.80,305.29 415.59,294.54 413.53,286.54 C411.54,278.79 411.53,261.28 413.51,253.46 C414.34,250.18 416.89,243.68 419.18,239.00 C425.03,227.04 436.94,215.16 449.00,209.24 C458.31,204.67 467.88,202.04 475.25,202.01 ZM 510.96 331.80 C506.27,334.11 501.65,336.00 500.71,336.00 C499.11,336.00 499.00,331.67 499.00,270.50 C499.00,213.68 499.19,205.00 500.46,205.00 C501.27,205.00 504.19,205.89 506.97,206.99 C533.24,217.34 550.51,245.29 548.68,274.50 C547.56,292.36 541.60,305.38 528.50,318.55 C521.19,325.90 517.90,328.38 510.96,331.80 Z" fill="white"/>
</svg>
